<?xml version="1.0" encoding="utf-8"?>
<!-- Generator: Adobe Illustrator 18.1.1, SVG Export Plug-In . SVG Version: 6.00 Build 0)  -->
<svg version="1.1" id="Laag_1" xmlns="http://www.w3.org/2000/svg" xmlns:xlink="http://www.w3.org/1999/xlink" x="0px" y="0px"
	 viewBox="0 0 1120 758" enable-background="new 0 0 1120 758" xml:space="preserve">
<g>
	<g>
		<path fill="#FFFFFF" d="M764.2,277.2c-11.7,0-26.4-7.7-40.6-15.2c-5.4-2.8-10.4-5.5-15.2-7.7l-0.8-0.4l-0.2-0.8
			c-0.1-0.3-10.2-35.2-18.4-67.8l-0.4-1.6l6.2-2.5l0.7,1.8c12.6,33,25.9,54.2,32.6,63.8c5.7,8.3,21.4,20,38.6,20
			c17.6,0,43.1-13.1,43.1-36.7c0-16.8-14-24-35.3-35c-4.9-2.5-9.9-5.1-15.3-8.1c-39.8-22.2-53.9-39.1-53.9-64.8
			c0-14,5.5-26,15.9-34.6c9.7-8,23-12.4,37.5-12.4c24.4,0,43.4,8.3,59.7,26l0.8,0.9l-25.9,69.5c19.7,11.3,32.6,24,32.6,48.2
			c0,15.7-5.2,29.8-14.7,39.8C800.5,271.2,784.2,277.2,764.2,277.2z M760,85.6c-25.4,0-39.2,16.7-39.2,32.5
			c0,18.3,15.8,25.6,34.2,34.2c3.2,1.5,6.5,3,9.8,4.7c2.3,1.2,4.6,2.3,6.9,3.4c5,2.5,9.8,4.8,14.3,7.2l8-61.2
			C785.7,92.6,774.3,85.6,760,85.6z"/>
		<path d="M758.8,77.2c24.6,0,42.8,8.5,58.3,25.4l-26,69.9c19.7,11.1,33.1,23.4,33.1,47.3c0,28.7-17.8,55.5-60,55.5
			c-15.6,0-37.7-14.8-55-22.7c0,0-10.1-34.8-18.3-67.7l2.8-1.1c11.3,29.6,23.8,51.3,32.8,64.2c5.9,8.7,22.1,20.9,40.2,20.9
			c19.3,0,45-14.1,45-38.6c0-22-22.6-28.7-51.5-44.8c-37.9-21.1-52.9-37.5-52.9-63.1C707.3,94.2,730.8,77.2,758.8,77.2 M787.4,170.5
			l8.5-64.5c-6.7-11.5-17.7-22.2-36-22.2c-20.1,0-41.1,12.4-41.1,34.4c0,22.8,22.9,29.6,45,40.6
			C772.3,162.8,780.2,166.6,787.4,170.5 M758.8,73.4c-14.9,0-28.7,4.6-38.7,12.8c-10.9,9-16.6,21.5-16.6,36
			c0,13.9,4.2,25.2,13.2,35.7c8.4,9.9,21.3,19.3,41.7,30.7c5.4,3,10.4,5.6,15.3,8.1c22.5,11.7,34.3,18.4,34.3,33.4
			c0,22.4-24.4,34.8-41.2,34.8c-16.6,0-31.6-11.2-37.1-19.2c-6.7-9.6-19.9-30.6-32.4-63.5l-1.4-3.6l-3.6,1.4l-2.8,1.1l-3.1,1.2
			l0.8,3.2c8.1,32.7,18.3,67.5,18.4,67.9l0.5,1.7l1.6,0.7c4.7,2.1,9.7,4.8,15.1,7.6c14.4,7.6,29.3,15.4,41.5,15.4
			c20.5,0,37.3-6.3,48.6-18.2c9.8-10.4,15.2-25,15.2-41.1c0-25.8-15.1-39-32.2-49l24.9-66.9l0.8-2.2l-1.6-1.7
			C803.2,81.9,783.8,73.4,758.8,73.4L758.8,73.4z M784.4,164.6c-3.8-2-7.8-3.9-11.9-5.9c-2.2-1.1-4.5-2.2-6.9-3.4
			c-3.3-1.6-6.6-3.2-9.8-4.7c-18.5-8.6-33.1-15.4-33.1-32.5c0-14.8,13.1-30.6,37.3-30.6c13.4,0,24.2,6.5,32,19.3L784.4,164.6
			L784.4,164.6z"/>
	</g>
	<g>
		<path fill="#FFFFFF" d="M587.8,274.4v-8.9h1.9c0.2,0,22.7,0,34.8-1.4l0,0l0,0l0.3,0c1.5-0.2,2.7-0.4,3.7-0.6
			c1.2-0.4,1.5-0.9,1.6-1.1c0.5-1.1-0.2-3.5-0.8-5.4l-1.2-3.4l-21.4-57.9h-71.7l-23.2,59.7c-0.6,2.4-0.5,4,0.3,5.2
			c1.3,1.9,4.8,3.1,10.6,3.8l26.9,1.2v8.8h-89.3v-8.9l1.9,0c0,0,0.9,0,2.5,0c4.3,0,12.8-0.1,20.5-0.9l0.1,0h0.1
			c1.6-0.2,3.1-0.3,4.4-0.5c3.9-0.9,6.5-2.7,8.4-6.3L564,87.3c-3.5-1.7-7.8-2.4-13.7-2.4c-4.7,0-10.1,0.5-14.8,1l-1.7,0.2l-1.6-7.6
			l55.1-9l8.7,22.2l63.8,167.7c1.5,3.2,3.5,4.7,6.9,5.3c12.3,0.9,28.9,0.9,29.1,0.9h1.9v8.9H587.8z M602.4,184.4l-30.8-83.2
			l-32.3,83.2H602.4z"/>
		<path d="M586.1,71.6l8.1,20.7l63.9,167.7c1.7,3.7,4.2,5.7,8.5,6.5c12.5,0.9,29.3,0.9,29.3,0.9v5.1H589.7v-5.1c0,0,22.7,0,35-1.4
			l-0.1,0c0.1,0,0.3,0,0.4,0c1.5-0.2,2.9-0.4,4-0.6c4.1-1.3,3.6-4.5,2.1-8.9l0.1,0.2L608,193.9h-74.3l-23.7,61
			c-1.6,6.4,0.7,10.1,12.6,11.4l25.2,1.1v5.1h-85.5v-5.1c0,0,0.9,0,2.5,0c4.2,0,12.8-0.1,20.8-0.9h0c0,0,0,0,0,0
			c1.6-0.2,3.2-0.4,4.7-0.6c4.7-1,7.6-3.4,9.8-7.3l66.3-172.2c-4.3-2.5-9.5-3.4-16-3.4c-4.4,0-9.4,0.4-15,1l-0.8-3.9L586.1,71.6
			 M536.6,186.3h68.6l-33.4-90.5L536.6,186.3 M588.6,67.4l-3,0.5l-51.7,8.4l-3.9,0.6l0.8,3.9l0.8,3.9l0.7,3.3l3.4-0.3
			c4.7-0.5,10-1,14.6-1c4.7,0,8.3,0.5,11.2,1.5l-65,168.7c-1.7,2.9-3.7,4.5-7,5.2c-1.3,0.2-2.7,0.4-4.2,0.5h-0.1l-0.2,0
			c-7.7,0.8-16,0.9-20.3,0.9c-1.5,0-2.4,0-2.4,0l-3.9-0.1l0,3.9v5.1v3.8h3.8h85.5h3.8v-3.8v-5.1v-3.6l-3.6-0.2l-25.1-1.1
			c-6.7-0.8-8.7-2.2-9.2-3c-0.2-0.2-0.7-1-0.1-3.5l22.6-58.3h69.1l20.9,56.6l1.2,3.4c0.9,2.5,1,3.5,0.9,3.8c-0.1,0-0.2,0.1-0.4,0.2
			c-0.9,0.2-2.1,0.3-3.4,0.5c-0.1,0-0.1,0-0.2,0l0,1.2l-0.1-1.2c-11.9,1.4-34.3,1.4-34.5,1.4h-3.8v3.8v5.1v3.8h3.8h106.2h3.8v-3.8
			v-5.1v-3.8l-3.8,0c-0.2,0-16.6,0-28.8-0.9c-2.8-0.5-4.2-1.6-5.4-4.2L597.8,91l-8.1-20.8L588.6,67.4L588.6,67.4z M542.1,182.5
			l29.5-76l28.1,76H542.1L542.1,182.5z"/>
	</g>
	<g>
		<path fill="#FFFFFF" d="M281.9,274.4v-8.9h1.9c12.9,0,34.1-0.6,40-2.2v-174c-5.9-1.6-27.1-2.2-40-2.2h-1.9v-8.9h107.3V87h-1.9
			c-11.9,0-31.6,0.6-37.4,2.2v170.9c2.3,3.6,5.4,4.6,14,4.6c2.6,0,7.7,0.1,12.6,0.1c4.9,0.1,9.9,0.1,12.5,0.1
			c14.2,0,29.1-1.4,41.1-18c9-12,22.4-40.7,31.8-63.8l0.7-1.7l6.5,2.3l-0.5,1.7c-5.5,20.4-11.8,39.8-17.5,56.9
			c-4,12.1-7.5,22.6-9.7,30.8l-0.4,1.4H281.9z"/>
		<path d="M387.3,80.1v2v3.1c0,0-33.6,0-39.3,2.8v172.7c2.8,4.8,6.8,5.9,15.9,5.9c5.1,0,19.9,0.2,25,0.2c15.5,0,30.5-2.1,42.7-18.8
			c9.1-12.1,22.6-41.1,32-64.2l3.1,1.1c-9.3,34.9-21.8,67.9-27.2,87.6h-92.1h-15.6h-48.1v-2v-3.1c0,0,36.2,0,41.9-2.8V88
			c-5.7-2.8-41.9-2.8-41.9-2.8V82v-2h42.5h21.2H387.3 M391.1,76.3h-3.8h-39.8h-21.2h-42.5H280v3.8v2v3.1v3.8l3.8,0
			c14.7,0,31.8,0.7,38.1,1.8v171c-6.3,1.2-23.4,1.8-38.1,1.8H280v3.8v3.1v2v3.8h3.8h48.1h15.6h92.1h2.9l0.8-2.8
			c2.2-8.2,5.7-18.6,9.7-30.7c5.7-17.1,12.1-36.5,17.5-57l0.9-3.4l-3.3-1.2l-3.1-1.1l-3.4-1.2l-1.4,3.4c-9.3,23-22.7,51.6-31.5,63.4
			l0,0l0,0C418.1,260.1,405.7,263,389,263c-2.5,0-7.6-0.1-12.5-0.1c-4.9-0.1-10-0.1-12.6-0.1c-8.2,0-10.5-1-12.1-3.2V90.8
			c6.1-1.1,21.9-1.8,35.5-1.8h3.8v-3.8V82v-2V76.3L391.1,76.3z"/>
	</g>
	<g>
		<path fill="#FFFFFF" d="M250.2,280.9l-0.3-1.5c-0.8-4-5.5-24-17-41.2c-12.8,26.4-30.6,38.8-55.6,38.8c-23.5,0-45.1-8.2-60.6-23.1
			c-18.9-18.1-28.5-44.6-28.5-78.9c0-27,8.6-51.8,24.4-69.8c17.2-19.7,41.4-30.1,70.1-30.1c28.3,0,64.7,10.2,77.7,58.9l0.3,1.2
			l-63,48.4h100.6v8.9l-1.9,0c-13,0.1-33.5,1.2-39.6,3.8c-0.5,18.5-0.6,52.1-0.1,67.5l0.2,5.4l0.5,11.8H250.2z M182.7,85.3
			c-44.3,0.8-64.3,45.8-64.6,90c-0.1,26.3,6.8,48,20,62.7c11.2,12.5,26.2,19.5,42.4,19.6l0.5,0c17.9,0,29.5-8.8,36.1-16.2
			c7.6-8.5,12.7-20.1,13.3-30.1v-15c-5.5-2.7-28.7-3.8-42.8-3.9l-1.9,0v-7.7l45.6-54.1C226.3,102.6,208.6,86.1,182.7,85.3z"/>
		<path d="M182.7,77c28.9,0,63.4,11,75.9,57.5l-66.4,51h40.6H254h42.5v2v3.1c0,0-34.6,0.3-41.5,4.5c-0.5,17.7-0.7,52.8-0.1,68.8
			l0-0.1l0.6,15.3h-3.7c-1.4-6.7-6.7-27.5-19.2-44.6c-11.5,25.3-27.9,40.6-55.3,40.6c-41.9,0-87.2-26.8-87.2-100
			C90.1,122.9,122.9,77,182.7,77 M180.9,259.6c32.8,0,50.2-28.8,51.3-48.2v-16.1c-5.7-4.5-44.7-4.8-44.7-4.8v-3.1v-2l45.7-54.2
			c-4.7-28.7-22.8-47-50.5-47.8c-46.1,0.8-66.2,47.3-66.5,91.9c-0.3,58.6,33.4,84,64.3,84.3C180.6,259.6,180.7,259.6,180.9,259.6
			 M182.7,73.2c-29.3,0-54,10.6-71.6,30.8c-16,18.4-24.8,43.6-24.8,71.1c0,17.9,2.7,34,8,47.9c4.9,12.7,12,23.6,21.1,32.3
			c15.9,15.2,37.9,23.6,61.9,23.6c24.9,0,42.8-11.7,55.8-36.8c10,16.2,14.1,34,14.9,37.8l0.6,3h3.1h3.7h4l-0.2-4l-0.4-9.7l-0.2-5.5
			c-0.5-15-0.3-47.4,0.1-66.1c6.6-2.1,25.2-3.1,37.8-3.2l3.8,0v-3.8v-3.1v-2v-3.8h-3.8H254h-21.2h-29.4l57.5-44.2l2-1.5l-0.7-2.5
			c-5.9-22-17.2-38.3-33.4-48.4C216.1,77.2,200.6,73.2,182.7,73.2L182.7,73.2z M180.9,255.8l-0.4,0c-15.6-0.1-30.2-6.9-41-19
			c-12.9-14.4-19.6-35.7-19.5-61.4c0.1-23.2,5.6-44.6,15.5-60.3c5.3-8.5,11.9-15.2,19.4-19.9c8.1-5,17.5-7.7,27.8-7.9
			c24.7,0.7,41.6,16.3,46.5,42.9L184.6,183l-0.9,1.1v1.4v2v3.1v3.8l3.8,0c0.1,0,9.7,0.1,19.8,0.7c13.3,0.8,18.8,2,21.1,2.7v13.6
			c-0.6,9.7-5.5,20.7-12.8,28.9C209.3,247.3,198.1,255.8,180.9,255.8L180.9,255.8z"/>
	</g>
	<g>
		<path fill="#FFFFFF" d="M921.1,277.2c-17.5,0-33.7-3.6-49.8-10.9l-0.7-0.3l-0.3-0.8c-0.2-0.5-16.3-47.2-24.4-79.9l-0.4-1.6
			l6.2-2.5l0.7,1.8c12.6,33,25.9,54.2,32.6,63.8c5.7,8.3,21.4,20,38.6,20c17.6,0,43.1-13.1,43.1-36.7c0-16.8-14-24-35.3-35
			c-4.9-2.5-9.9-5.1-15.3-8.1c-39.8-22.2-53.9-39.1-53.9-64.8c0-14,5.5-26,15.9-34.6c9.7-8,23-12.4,37.5-12.4
			c24.4,0,43.4,8.3,59.7,26l0.8,0.9l-25.9,69.5c19.7,11.3,32.6,24,32.6,48.2c0,15.7-5.2,29.8-14.7,39.8
			C957.5,271.2,941.2,277.2,921.1,277.2z M916.9,85.6c-25.4,0-39.2,16.7-39.2,32.5c0,18.3,15.8,25.6,34.2,34.2
			c3.2,1.5,6.5,3,9.8,4.7c2.3,1.1,4.6,2.3,6.8,3.4c5,2.5,9.8,4.8,14.3,7.2l8-61.2C942.6,92.6,931.2,85.6,916.9,85.6z"/>
		<path d="M915.8,77.2c24.6,0,42.7,8.5,58.3,25.4l-26,69.9c19.7,11.1,33.1,23.4,33.1,47.3c0,28.7-17.8,55.5-60,55.5
			c-15.6,0-31.7-2.8-49-10.7c0,0-16.1-46.8-24.3-79.7l2.8-1.1c11.3,29.6,23.8,51.3,32.8,64.2c5.9,8.7,22.1,20.9,40.2,20.9
			c19.3,0,45-14.1,45-38.6c0-22-22.6-28.7-51.5-44.8c-37.9-21.1-52.9-37.5-52.9-63.1C864.2,94.2,887.7,77.2,915.8,77.2 M944.4,170.5
			l8.5-64.5c-6.7-11.5-17.7-22.2-36-22.2c-20.1,0-41.1,12.4-41.1,34.4c0,22.8,22.9,29.6,45,40.6
			C929.2,162.8,937.2,166.6,944.4,170.5 M915.8,73.4c-14.9,0-28.7,4.6-38.7,12.8c-10.9,9-16.6,21.5-16.6,36
			c0,13.9,4.2,25.2,13.2,35.7c8.4,9.9,21.3,19.3,41.7,30.7c5.4,3,10.4,5.6,15.3,8.1c22.5,11.7,34.3,18.4,34.3,33.4
			c0,22.4-24.4,34.8-41.2,34.8c-16.6,0-31.6-11.2-37.1-19.2c-6.7-9.6-19.9-30.6-32.4-63.5l-1.4-3.6l-3.6,1.4l-2.8,1.1l-3.1,1.2
			l0.8,3.2c8.2,32.8,24.3,79.6,24.4,80.1l0.5,1.5l1.5,0.7c16.3,7.4,32.8,11.1,50.6,11.1c20.5,0,37.3-6.3,48.6-18.2
			c9.8-10.4,15.2-25,15.2-41.1c0-25.8-15.1-39-32.2-49l24.9-66.9l0.8-2.2l-1.6-1.7C960.2,81.9,940.8,73.4,915.8,73.4L915.8,73.4z
			 M941.3,164.6c-3.8-2-7.8-3.9-12-6c-2.2-1.1-4.5-2.2-6.8-3.4c-3.3-1.6-6.6-3.2-9.8-4.7c-18.5-8.6-33.1-15.4-33.1-32.5
			c0-14.8,13.1-30.6,37.3-30.6c13.4,0,24.2,6.5,32,19.3L941.3,164.6L941.3,164.6z"/>
	</g>
</g>
<g>
	<path d="M275,43.9h-3l-10.4-27.3h2.6l9.3,24.4l9.3-24.4h2.6L275,43.9z"/>
	<path d="M300.1,44.3c-8.5,0-12.8-7.1-12.8-14s4.3-14.1,12.8-14.1s12.8,7.2,12.8,14.1S308.6,44.3,300.1,44.3z M290,30.3
		c0,6.6,3.8,11.8,10.1,11.8c6.2,0,10.1-5.3,10.1-11.8c0-6.6-3.8-12-10.1-12C293.9,18.4,290,23.8,290,30.3z"/>
	<path d="M320.9,28.9H333V31h-12.1v10.8h14.9v2.2h-17.4V16.6h17.4v2.2h-14.9V28.9z"/>
	<path d="M353.4,31.5l6.6,12.4h-2.8l-6.4-12.3h-7v12.3h-2.6V16.6h11.5c4.8,0,7.4,3.6,7.4,7.6C360,27.9,357.6,31,353.4,31.5z
		 M352,29.5c3.3-0.2,5.2-2.5,5.2-5.3c0-2.9-1.8-5.4-5.2-5.4h-8.4v10.7H352z"/>
	<path d="M374.9,18.8v25.2h-2.6V18.8H363v-2.2h21.2v2.2H374.9z"/>
	<path d="M407.9,34.5c0,5.9-3.2,9.8-9.7,9.8s-9.7-3.9-9.7-9.8V16.6h2.6V35c0,4.3,2.3,7.2,7.1,7.2s7.1-2.9,7.1-7.2V16.6h2.6V34.5z"/>
	<path d="M420.7,41.8h3.7v2.2h-10v-2.2h3.8v-23h-3.8v-2.2h10v2.2h-3.7V41.8z"/>
	<path d="M454,43.9h-2.6v-4.8c-1.5,2.9-4.2,5.2-9.2,5.2c-8.9,0-12.8-7.1-12.8-14s3.9-14.1,13.2-14.1c6.8,0,11,4.3,11.3,10l-2.7,0.8
		c0.2-5.5-3.8-8.7-8.6-8.7c-7,0-10.5,5.4-10.5,12c0,6.6,3.4,11.8,10.1,11.8c5,0,8.8-3.1,9.2-8.7v-1.6h2.6V43.9z"/>
	<path d="M484.3,43.9h-3L471,16.6h2.6l9.3,24.4l9.3-24.4h2.6L484.3,43.9z"/>
	<path d="M499.9,34.4l-3.6,9.5h-2.6l10.4-27.3h3l10.4,27.3h-2.6l-3.6-9.5H499.9z M505.6,19.5l-4.9,12.8h9.8L505.6,19.5z"/>
	<path d="M544.4,43.9h-3.9l-15.4-24.6v24.6h-2.6V16.6h3.9l15.4,24.6V16.6h2.6V43.9z"/>
	<path d="M574.8,43.9h-3l-10.4-27.3h2.6l9.3,24.4l9.3-24.4h2.6L574.8,43.9z"/>
	<path d="M599.9,44.3c-8.5,0-12.8-7.1-12.8-14s4.3-14.1,12.8-14.1s12.8,7.2,12.8,14.1S608.4,44.3,599.9,44.3z M589.8,30.3
		c0,6.6,3.8,11.8,10.1,11.8c6.2,0,10.1-5.3,10.1-11.8c0-6.6-3.8-12-10.1-12C593.6,18.4,589.8,23.8,589.8,30.3z"/>
	<path d="M630.8,44.3c-8.5,0-12.8-7.1-12.8-14s4.3-14.1,12.8-14.1s12.8,7.2,12.8,14.1S639.3,44.3,630.8,44.3z M620.7,30.3
		c0,6.6,3.8,11.8,10.1,11.8c6.2,0,10.1-5.3,10.1-11.8c0-6.6-3.8-12-10.1-12C624.6,18.4,620.7,23.8,620.7,30.3z"/>
	<path d="M661.2,31.5l6.6,12.4H665l-6.4-12.3h-7v12.3H649V16.6h11.5c4.8,0,7.4,3.6,7.4,7.6C667.8,27.9,665.4,31,661.2,31.5z
		 M659.9,29.5c3.3-0.2,5.2-2.5,5.2-5.3c0-2.9-1.8-5.4-5.2-5.4h-8.4v10.7H659.9z"/>
	<path d="M692.6,34.5c0,5.9-3.2,9.8-9.7,9.8s-9.7-3.9-9.7-9.8V16.6h2.6V35c0,4.3,2.3,7.2,7.1,7.2s7.1-2.9,7.1-7.2V16.6h2.6V34.5z"/>
	<path d="M705.4,41.8h3.7v2.2h-10v-2.2h3.8v-23H699v-2.2h10v2.2h-3.7V41.8z"/>
	<path d="M724.8,18.8v25.2h-2.6V18.8h-9.4v-2.2h21.2v2.2H724.8z"/>
	<path d="M761.8,43.9h-2.6v-4.8c-1.5,2.9-4.2,5.2-9.2,5.2c-8.9,0-12.8-7.1-12.8-14s3.9-14.1,13.2-14.1c6.8,0,11,4.3,11.3,10
		l-2.7,0.8c0.2-5.5-3.8-8.7-8.6-8.7c-7,0-10.5,5.4-10.5,12c0,6.6,3.4,11.8,10.1,11.8c5,0,8.8-3.1,9.2-8.7v-1.6h2.6V43.9z"/>
	<path d="M772.2,34.4l-3.6,9.5H766l10.4-27.3h3l10.4,27.3h-2.6l-3.6-9.5H772.2z M777.9,19.5L773,32.3h9.8L777.9,19.5z"/>
	<path d="M816.8,43.9h-3.9l-15.4-24.6v24.6h-2.6V16.6h3.9l15.4,24.6V16.6h2.6V43.9z"/>
	<path d="M846.8,43.9h-2.6v-4.8c-1.5,2.9-4.2,5.2-9.2,5.2c-8.9,0-12.8-7.1-12.8-14s3.9-14.1,13.2-14.1c6.8,0,11,4.3,11.3,10
		l-2.7,0.8c0.2-5.5-3.8-8.7-8.6-8.7c-7,0-10.5,5.4-10.5,12c0,6.6,3.4,11.8,10.1,11.8c5,0,8.8-3.1,9.2-8.7v-1.6h2.6V43.9z"/>
</g>
<g>
	<g>
		<path fill="#FFFFFF" d="M764.2,499.1c-17.5,0-33.7-3.6-49.8-10.9l-0.7-0.3l-0.3-0.8c-0.2-0.5-16.3-47.2-24.4-79.9l-0.4-1.6
			l6.2-2.5l0.7,1.8c12.6,33,25.9,54.2,32.6,63.8c5.7,8.3,21.4,20,38.6,20c17.6,0,43.1-13.1,43.1-36.7c0-16.8-14-24-35.3-35
			c-4.9-2.5-9.9-5.1-15.3-8.1c-39.8-22.2-53.9-39.1-53.9-64.8c0-14,5.5-26,15.9-34.6c9.7-8,23-12.4,37.5-12.4
			c24.4,0,43.4,8.3,59.7,26l0.8,0.9l-25.9,69.5c19.7,11.3,32.6,24,32.6,48.2c0,15.7-5.2,29.8-14.7,39.8
			C800.5,493,784.2,499.1,764.2,499.1z M760,307.5c-25.4,0-39.2,16.7-39.2,32.5c0,18.3,15.8,25.6,34.2,34.2c3.2,1.5,6.5,3,9.8,4.7
			c2.3,1.2,4.6,2.3,6.9,3.4c5,2.5,9.8,4.8,14.3,7.2l8-61.2C785.7,314.4,774.3,307.5,760,307.5z"/>
		<path d="M758.8,299.1c24.6,0,42.8,8.5,58.3,25.4l-26,69.9c19.7,11.1,33.1,23.4,33.1,47.3c0,28.7-17.8,55.5-60,55.5
			c-15.6,0-31.7-2.8-49-10.7c0,0-16.1-46.8-24.3-79.7l2.8-1.1c11.3,29.6,23.8,51.3,32.8,64.2c5.9,8.7,22.1,20.9,40.2,20.9
			c19.3,0,45-14.1,45-38.6c0-22-22.6-28.7-51.5-44.8c-37.9-21.1-52.9-37.5-52.9-63.1C707.3,316,730.8,299.1,758.8,299.1
			 M787.4,392.3l8.5-64.5c-6.7-11.5-17.7-22.2-36-22.2c-20.1,0-41.1,12.4-41.1,34.4c0,22.8,22.9,29.6,45,40.6
			C772.3,384.7,780.2,388.4,787.4,392.3 M758.8,295.3c-14.9,0-28.7,4.6-38.7,12.8c-10.9,9-16.6,21.5-16.6,36
			c0,13.9,4.2,25.2,13.2,35.7c8.4,9.9,21.3,19.3,41.7,30.7c5.4,3,10.4,5.6,15.3,8.1c22.5,11.7,34.3,18.4,34.3,33.4
			c0,22.4-24.4,34.8-41.2,34.8c-16.6,0-31.6-11.2-37.1-19.2c-6.7-9.6-19.9-30.6-32.4-63.5l-1.4-3.6l-3.6,1.4l-2.8,1.1l-3.1,1.2
			l0.8,3.2c8.2,32.8,24.3,79.6,24.4,80.1l0.5,1.5l1.5,0.7c16.3,7.4,32.8,11.1,50.6,11.1c20.5,0,37.3-6.3,48.6-18.2
			c9.8-10.4,15.2-25,15.2-41.1c0-25.8-15.1-39-32.2-49l24.9-66.9l0.8-2.2l-1.6-1.7C803.2,303.7,783.8,295.3,758.8,295.3L758.8,295.3
			z M784.4,386.4c-3.8-2-7.8-3.9-11.9-5.9c-2.2-1.1-4.5-2.2-6.9-3.4c-3.3-1.6-6.6-3.2-9.8-4.7c-18.5-8.6-33.1-15.4-33.1-32.5
			c0-14.8,13.1-30.6,37.3-30.6c13.4,0,24.2,6.5,32,19.3L784.4,386.4L784.4,386.4z"/>
	</g>
	<g>
		<path fill="#FFFFFF" d="M587.8,496.2v-8.9h1.9c0.2,0,22.7,0,34.8-1.4l0,0l0,0l0.3,0c1.5-0.2,2.7-0.4,3.7-0.6
			c1.2-0.4,1.5-0.9,1.6-1.1c0.5-1.1-0.2-3.5-0.8-5.4l-1.2-3.4l-21.4-57.9h-71.7l-23.2,59.7c-0.6,2.4-0.5,4,0.3,5.2
			c1.3,1.9,4.8,3.1,10.6,3.8l26.9,1.2v8.8h-89.3v-8.9l1.9,0c0,0,0.9,0,2.5,0c4.3,0,12.8-0.1,20.5-0.9l0.1,0h0.1
			c1.6-0.2,3.1-0.3,4.4-0.5c3.9-0.9,6.5-2.8,8.4-6.3L564,309.1c-3.5-1.7-7.8-2.4-13.7-2.4c-4.7,0-9.9,0.5-14.8,1l-1.7,0.2l-1.6-7.6
			l55.1-9l8.7,22.2l63.8,167.7c1.5,3.2,3.5,4.7,6.9,5.3c12.3,0.9,28.9,0.9,29.1,0.9h1.9v8.9H587.8z M602.4,406.2L571.7,323
			l-32.3,83.2H602.4z"/>
		<path d="M586.1,293.5l8.1,20.7l63.9,167.7c1.7,3.7,4.2,5.7,8.5,6.5c12.5,0.9,29.3,0.9,29.3,0.9v5.1H589.7v-5.1c0,0,22.7,0,35-1.4
			l-0.1,0c0.1,0,0.3,0,0.4,0c1.5-0.2,2.9-0.4,4-0.6c4.1-1.3,3.6-4.5,2.1-8.9l0.1,0.2L608,415.7h-74.3l-23.7,61
			c-1.6,6.4,0.7,10.1,12.6,11.4l25.2,1.1v5.1h-85.5v-5.1c0,0,0.9,0,2.5,0c4.2,0,12.8-0.1,20.8-0.9h0c0,0,0,0,0,0
			c1.6-0.2,3.2-0.4,4.7-0.6c4.7-1,7.6-3.4,9.8-7.3l66.3-172.2c-4.3-2.5-9.5-3.4-16-3.4c-4.4,0-9.4,0.4-15,1l-0.8-3.9L586.1,293.5
			 M536.6,408.1h68.6l-33.4-90.5L536.6,408.1 M588.6,289.2l-3,0.5l-51.7,8.4l-3.9,0.6l0.8,3.9l0.8,3.9l0.7,3.3l3.4-0.3
			c4.7-0.5,10-1,14.6-1c4.7,0,8.3,0.5,11.2,1.5l-65,168.7c-1.7,2.9-3.7,4.5-7,5.2c-1.3,0.2-2.7,0.4-4.2,0.5h-0.1l-0.2,0
			c-7.7,0.8-16,0.9-20.3,0.9c-1.5,0-2.4,0-2.4,0l-3.9-0.1l0,3.9v5.1v3.8h3.8h85.5h3.8v-3.8v-5.1v-3.6l-3.6-0.2l-25.1-1.1
			c-6.7-0.8-8.7-2.2-9.2-3c-0.2-0.2-0.7-1-0.1-3.5l22.6-58.3h69.1l20.9,56.6l1.2,3.4c0.9,2.5,1,3.5,0.9,3.8c-0.1,0-0.2,0.1-0.4,0.2
			c-0.9,0.2-2.1,0.3-3.4,0.5c-0.1,0-0.1,0-0.2,0l0,1.2l-0.1-1.2c-11.9,1.4-34.3,1.4-34.5,1.4h-3.8v3.8v5.1v3.8h3.8h106.2h3.8v-3.8
			v-5.1v-3.8l-3.8,0c-0.2,0-16.6,0-28.8-0.9c-2.8-0.5-4.2-1.6-5.4-4.2l-63.8-167.6l-8.1-20.8L588.6,289.2L588.6,289.2z M542.1,404.3
			l29.5-76l28.1,76H542.1L542.1,404.3z"/>
	</g>
	<g>
		<path fill="#FFFFFF" d="M287.4,496.2l-5.5-2.7v-6.2h1.9c12.9,0,34.1-0.6,40-2.2v-174c-5.9-1.6-27.1-2.2-40-2.2h-1.9V300h107.3v8.9
			h-1.9c-11.9,0-31.6,0.6-37.4,2.2V482c2.3,3.6,5.4,4.6,14,4.6c2.6,0,7.7,0.1,12.6,0.1c4.9,0.1,9.9,0.1,12.5,0.1
			c14.2,0,29.1-1.4,41.1-18c9-12,22.4-40.7,31.8-63.8l0.7-1.7l6.5,2.3l-0.5,1.7c-5.5,20.4-11.8,39.8-17.5,56.9
			c-4,12.1-7.5,22.6-9.7,30.8l-0.4,1.4H287.4z"/>
		<path d="M387.3,301.9v2v3.1c0,0-33.6,0-39.3,2.8v172.7c2.8,4.8,6.8,5.9,15.9,5.9c5.1,0,19.9,0.2,25,0.2c15.5,0,30.5-2.1,42.7-18.8
			c9.1-12.1,22.6-41.1,32-64.2l3.1,1.1c-9.3,34.9-21.8,67.9-27.2,87.6h-92.1h-15.6h-44.1l-4-2v-3.1c0,0,36.2,0,41.9-2.8V309.8
			c-5.7-2.8-41.9-2.8-41.9-2.8v-3.1v-2h42.5h21.2H387.3 M391.1,298.1h-3.8h-39.8h-21.2h-42.5H280v3.8v2v3.1v3.8l3.8,0
			c14.7,0,31.8,0.7,38.1,1.8v171c-6.3,1.2-23.4,1.8-38.1,1.8H280v3.8v3.1v2.4l2.1,1l4,2l0.8,0.4h0.9h44.1h15.6h92.1h2.9l0.8-2.8
			c2.2-8.2,5.7-18.6,9.7-30.7c5.7-17.1,12.1-36.5,17.5-57l0.9-3.4l-3.3-1.2l-3.1-1.1l-3.4-1.2l-1.4,3.4c-9.3,23-22.7,51.6-31.5,63.4
			l0,0l0,0c-10.4,14.4-22.9,17.3-39.6,17.3c-2.5,0-7.6-0.1-12.5-0.1c-4.9-0.1-10-0.1-12.6-0.1c-8.2,0-10.5-1-12.1-3.2V312.6
			c6.1-1.1,21.9-1.8,35.5-1.8h3.8V307v-3.1v-2V298.1L391.1,298.1z"/>
	</g>
	<g>
		<path fill="#FFFFFF" d="M250.2,502.7l-0.3-1.5c-0.8-4-5.5-24-17-41.2c-12.8,26.4-30.6,38.8-55.6,38.8c-23.5,0-45.1-8.2-60.6-23.1
			c-18.9-18.1-28.5-44.6-28.5-78.9c0-27,8.6-51.8,24.4-69.8c17.2-19.7,41.4-30.1,70.1-30.1c28.3,0,64.7,10.2,77.7,58.9l0.3,1.2
			l-63,48.4h100.6v8.9l-1.9,0c-13,0.1-33.5,1.2-39.6,3.8c-0.5,18.5-0.6,52.1-0.1,67.5l0.2,5.4l0.5,11.8H250.2z M182.7,307.2
			c-44.3,0.8-64.3,45.8-64.6,90c-0.1,26.3,6.8,48,20,62.7c11.2,12.5,26.2,19.5,42.4,19.6l0.5,0c17.9,0,29.5-8.8,36.1-16.2
			c7.6-8.5,12.7-20.1,13.3-30.1v-15c-5.5-2.7-28.7-3.8-42.8-3.9l-1.9,0v-7.7l45.6-54.1C226.3,324.4,208.6,307.9,182.7,307.2z"/>
		<path d="M182.7,298.8c28.9,0,63.4,11,75.9,57.5l-66.4,51h40.6H254h42.5v2v3.1c0,0-34.6,0.3-41.5,4.5c-0.5,17.7-0.7,52.8-0.1,68.8
			l0-0.1l0.6,15.3h-3.7c-1.4-6.7-6.7-27.5-19.2-44.6c-11.5,25.3-27.9,40.6-55.3,40.6c-41.9,0-87.2-26.8-87.2-100
			C90.1,344.7,122.9,298.8,182.7,298.8 M180.9,481.4c32.8,0,50.2-28.8,51.3-48.2v-16.1c-5.7-4.5-44.7-4.8-44.7-4.8v-3.1v-2
			l45.7-54.2c-4.7-28.7-22.8-47-50.5-47.8c-46.1,0.8-66.2,47.3-66.5,91.9c-0.3,58.6,33.4,84,64.3,84.3
			C180.6,481.4,180.7,481.4,180.9,481.4 M182.7,295c-29.3,0-54,10.6-71.6,30.8c-16,18.4-24.8,43.6-24.8,71.1c0,17.9,2.7,34,8,47.9
			c4.9,12.7,12,23.6,21.1,32.3c15.9,15.2,37.9,23.6,61.9,23.6c24.9,0,42.8-11.7,55.8-36.8c10,16.2,14.1,34,14.9,37.8l0.6,3h3.1h3.7
			h4l-0.2-4l-0.4-9.7l-0.2-5.5c-0.5-15-0.3-47.4,0.1-66.1c6.6-2.1,25.2-3.1,37.8-3.2l3.8,0v-3.8v-3.1v-2v-3.8h-3.8H254h-21.2h-29.4
			l57.5-44.2l2-1.5l-0.7-2.5c-5.9-22-17.2-38.3-33.4-48.4C216.1,299,200.6,295,182.7,295L182.7,295z M180.9,477.6l-0.4,0
			c-15.6-0.1-30.2-6.9-41-19c-12.9-14.4-19.6-35.7-19.5-61.4c0.1-23.2,5.6-44.6,15.5-60.3c5.3-8.5,11.9-15.2,19.4-19.9
			c8.1-5,17.5-7.7,27.8-7.9c24.7,0.7,41.6,16.3,46.5,42.9l-44.5,52.9l-0.9,1.1v1.4v2v3.1v3.8l3.8,0c0.1,0,9.7,0.1,19.8,0.7
			c13.3,0.8,18.8,2,21.1,2.7v13.6c-0.6,9.7-5.5,20.7-12.8,28.9C209.3,469.1,198.1,477.6,180.9,477.6L180.9,477.6z"/>
	</g>
	<g>
		<path fill="#FFFFFF" d="M921.1,499.1c-17.5,0-33.7-3.6-49.8-10.9l-0.7-0.3l-0.3-0.8c-0.2-0.5-16.3-47.2-24.4-79.9l-0.4-1.6
			l6.2-2.5l0.7,1.8c12.6,33,25.9,54.2,32.6,63.8c5.7,8.3,21.4,20,38.6,20c17.6,0,43.1-13.1,43.1-36.7c0-16.8-14-24-35.3-35
			c-4.9-2.5-9.9-5.1-15.3-8.1c-39.8-22.2-53.9-39.1-53.9-64.8c0-14,5.5-26,15.9-34.6c9.7-8,23-12.4,37.5-12.4
			c24.4,0,43.4,8.3,59.7,26l0.8,0.9l-25.9,69.5c19.7,11.3,32.6,24,32.6,48.2c0,15.7-5.2,29.8-14.7,39.8
			C957.5,493,941.2,499.1,921.1,499.1z M916.9,307.5c-25.4,0-39.2,16.7-39.2,32.5c0,18.3,15.8,25.6,34.2,34.2c3.2,1.5,6.5,3,9.8,4.7
			c2.3,1.2,4.6,2.3,6.8,3.4c5,2.5,9.8,4.8,14.3,7.2l8-61.2C942.6,314.4,931.2,307.5,916.9,307.5z"/>
		<path d="M915.8,299.1c24.6,0,42.7,8.5,58.3,25.4l-26,69.9c19.7,11.1,33.1,23.4,33.1,47.3c0,28.7-17.8,55.5-60,55.5
			c-15.6,0-31.7-2.8-49-10.7c0,0-16.1-46.8-24.3-79.7l2.8-1.1c11.3,29.6,23.8,51.3,32.8,64.2c5.9,8.7,22.1,20.9,40.2,20.9
			c19.3,0,45-14.1,45-38.6c0-22-22.6-28.7-51.5-44.8c-37.9-21.1-52.9-37.5-52.9-63.1C864.2,316,887.7,299.1,915.8,299.1
			 M944.4,392.3l8.5-64.5c-6.7-11.5-17.7-22.2-36-22.2c-20.1,0-41.1,12.4-41.1,34.4c0,22.8,22.9,29.6,45,40.6
			C929.2,384.7,937.2,388.4,944.4,392.3 M915.8,295.3c-14.9,0-28.7,4.6-38.7,12.8c-10.9,9-16.6,21.5-16.6,36
			c0,13.9,4.2,25.2,13.2,35.7c8.4,9.9,21.3,19.3,41.7,30.7c5.4,3,10.4,5.6,15.3,8.1c22.5,11.7,34.3,18.4,34.3,33.4
			c0,22.4-24.4,34.8-41.2,34.8c-16.6,0-31.6-11.2-37.1-19.2c-6.7-9.6-19.9-30.6-32.4-63.5l-1.4-3.6l-3.6,1.4l-2.8,1.1l-3.1,1.2
			l0.8,3.2c8.2,32.8,24.3,79.6,24.4,80.1l0.5,1.5l1.5,0.7c16.3,7.4,32.8,11.1,50.6,11.1c20.5,0,37.3-6.3,48.6-18.2
			c9.8-10.4,15.2-25,15.2-41.1c0-25.8-15.1-39-32.2-49l24.9-66.9l0.8-2.2l-1.6-1.7C960.2,303.7,940.8,295.3,915.8,295.3L915.8,295.3
			z M941.3,386.4c-3.8-2-7.8-3.9-12-6c-2.2-1.1-4.5-2.2-6.8-3.4c-3.3-1.6-6.6-3.2-9.8-4.7c-18.5-8.6-33.1-15.4-33.1-32.5
			c0-14.8,13.1-30.6,37.3-30.6c13.4,0,24.2,6.5,32,19.3L941.3,386.4L941.3,386.4z"/>
	</g>
</g>
<g>
	<g>
		<path fill="#FFFFFF" d="M764.2,721.1c-17.5,0-33.7-3.6-49.8-10.9l-0.7-0.3l-0.3-0.8c-0.2-0.5-16.3-47.2-24.4-79.9l-0.4-1.6
			l6.2-2.5l0.7,1.8c12.6,33,25.9,54.2,32.6,63.8c5.7,8.3,21.4,20,38.6,20c17.6,0,43.1-13.1,43.1-36.7c0-16.8-14-24-35.3-35
			c-4.9-2.5-9.9-5.1-15.3-8.1c-39.8-22.2-53.9-39.1-53.9-64.8c0-14,5.5-26,15.9-34.6c9.7-8,23-12.4,37.5-12.4
			c24.4,0,43.4,8.3,59.7,26l0.8,0.9l-25.9,69.5c19.7,11.3,32.6,24,32.6,48.2c0,15.7-5.2,29.8-14.7,39.8
			C800.5,715,784.2,721.1,764.2,721.1z M760,529.5c-25.4,0-39.2,16.7-39.2,32.5c0,18.3,15.8,25.6,34.2,34.2c3.2,1.5,6.5,3,9.8,4.7
			c2.3,1.2,4.6,2.3,6.9,3.4c5,2.5,9.8,4.8,14.3,7.2l8-61.2C785.7,536.5,774.3,529.5,760,529.5z"/>
		<path d="M758.8,521.1c24.6,0,42.8,8.5,58.3,25.4l-26,69.9c19.7,11.1,33.1,23.4,33.1,47.3c0,28.7-17.8,55.5-60,55.5
			c-15.6,0-31.7-2.8-49-10.7c0,0-16.1-46.8-24.3-79.7l2.8-1.1c11.3,29.6,23.8,51.3,32.8,64.2c5.9,8.7,22.1,20.9,40.2,20.9
			c19.3,0,45-14.1,45-38.6c0-22-22.6-28.7-51.5-44.8c-37.9-21.1-52.9-37.5-52.9-63.1C707.3,538,730.8,521.1,758.8,521.1
			 M787.4,614.4l8.5-64.5c-6.7-11.5-17.7-22.2-36-22.2c-20.1,0-41.1,12.4-41.1,34.4c0,22.8,22.9,29.6,45,40.6
			C772.3,606.7,780.2,610.5,787.4,614.4 M758.8,517.3c-14.9,0-28.7,4.6-38.7,12.8c-10.9,9-16.6,21.5-16.6,36
			c0,13.9,4.2,25.2,13.2,35.7c8.4,9.9,21.3,19.3,41.7,30.7c5.4,3,10.4,5.6,15.3,8.1c22.5,11.7,34.3,18.4,34.3,33.4
			c0,22.4-24.4,34.8-41.2,34.8c-16.6,0-31.6-11.2-37.1-19.2c-6.7-9.6-19.9-30.6-32.4-63.5l-1.4-3.6l-3.6,1.4l-2.8,1.1l-3.1,1.2
			l0.8,3.2c8.2,32.8,24.3,79.6,24.4,80.1l0.5,1.5l1.5,0.7c16.3,7.4,32.8,11.1,50.6,11.1c20.5,0,37.3-6.3,48.6-18.2
			c9.8-10.4,15.2-25,15.2-41.1c0-25.8-15.1-39-32.2-49l24.9-66.9l0.8-2.2l-1.6-1.7C803.2,525.8,783.8,517.3,758.8,517.3L758.8,517.3
			z M784.4,608.5c-3.8-2-7.8-3.9-11.9-5.9c-2.2-1.1-4.5-2.2-6.9-3.4c-3.3-1.6-6.6-3.2-9.8-4.7c-18.5-8.6-33.1-15.4-33.1-32.5
			c0-14.8,13.1-30.6,37.3-30.6c13.4,0,24.2,6.5,32,19.3L784.4,608.5L784.4,608.5z"/>
	</g>
	<g>
		<path fill="#FFFFFF" d="M599.8,718.3v-8.9l1.9,0c0.1,0,10.7,0,22.8-1.4l0,0l0,0l0.3,0c1.5-0.2,2.7-0.4,3.7-0.6
			c1.2-0.4,1.5-0.9,1.6-1.1c0.5-1.1-0.2-3.5-0.8-5.4l-1.2-3.4l-21.4-57.9h-71.7l-23.2,59.7c-0.6,2.4-0.5,4,0.3,5.2
			c1.3,1.9,4.8,3.1,10.6,3.8l26.9,1.2v8.8h-89.3v-8.9l1.9,0c0,0,0.9,0,2.5,0c4.3,0,12.8-0.1,20.5-0.9l0.1,0h0.1
			c1.6-0.2,3.1-0.3,4.4-0.5c3.9-0.9,6.5-2.8,8.4-6.3L564,531.2c-3.5-1.7-7.8-2.4-13.7-2.4c-2.1,0-2.5,0.1-3.1,0.2
			c-0.7,0.2-1.7,0.4-4.5,0.7l-1.7,0.2l-1.6-7.5l47.9-9.1l8.7,22.2l63.8,167.7c1.5,3.2,3.5,4.7,6.9,5.3c12.3,0.9,28.9,0.9,29.1,0.9
			h1.9v8.9H599.8z M602.4,628.3l-30.8-83.2l-32.3,83.2H602.4z"/>
		<path d="M586.1,515.5l8.1,20.7L658.1,704c1.7,3.7,4.2,5.7,8.5,6.5c12.5,0.9,29.3,0.9,29.3,0.9v5.1h-94.2v-5.1c0,0,10.7,0,23-1.4
			l-0.1,0c0.1,0,0.3,0,0.4,0c1.5-0.2,2.9-0.4,4-0.6c4.1-1.3,3.6-4.5,2.1-8.9l0.1,0.2L608,637.8h-74.3l-23.7,61
			c-1.6,6.4,0.7,10.1,12.6,11.4l25.2,1.1v5.1h-85.5v-5.1c0,0,0.9,0,2.5,0c4.2,0,12.8-0.1,20.8-0.9h0c0,0,0,0,0,0
			c1.6-0.2,3.2-0.4,4.7-0.6c4.7-1,7.6-3.4,9.8-7.3l66.3-172.2c-4.3-2.5-9.5-3.4-16-3.4c-4.4,0-2.1,0.4-7.7,1l-0.8-3.9L586.1,515.5
			 M536.6,630.2h68.6l-33.4-90.5L536.6,630.2 M588.5,511.2l-3.1,0.6l-44.4,8.4l-3.8,0.7l0.8,3.8l0.8,3.9l0.7,3.3l3.4-0.3
			c2.7-0.3,3.8-0.5,4.8-0.8c0.5-0.1,0.7-0.2,2.6-0.2c4.7,0,8.3,0.5,11.2,1.5l-65,168.7c-1.7,2.9-3.7,4.5-7,5.2
			c-1.3,0.2-2.7,0.4-4.2,0.5h-0.1l-0.2,0c-7.7,0.8-16,0.9-20.3,0.9c-1.5,0-2.4,0-2.4,0l-3.9-0.1l0,3.9v5.1v3.8h3.8h85.5h3.8v-3.8
			v-5.1v-3.6l-3.6-0.2l-25.1-1.1c-6.7-0.8-8.7-2.2-9.2-3c-0.2-0.2-0.7-1-0.1-3.5l22.6-58.3h69.1l20.9,56.6l1.2,3.4
			c0.9,2.5,1,3.5,0.9,3.8c-0.1,0-0.2,0.1-0.4,0.2c-0.9,0.2-2.1,0.3-3.4,0.5c-0.1,0-0.1,0-0.2,0l0,1.2l-0.1-1.2
			c-11.9,1.4-22.4,1.4-22.5,1.4l-3.8,0l0,3.8v5.1v3.8h3.8h94.2h3.8v-3.8v-5.1v-3.8l-3.8,0c-0.2,0-16.6,0-28.8-0.9
			c-2.8-0.5-4.2-1.6-5.4-4.2l-63.8-167.6l-8.1-20.8L588.5,511.2L588.5,511.2z M542.1,626.4l29.5-76l28.1,76H542.1L542.1,626.4z"/>
	</g>
	<g>
		<path fill="#FFFFFF" d="M281.9,718.3v-8.9h1.9c12.9,0,34.1-0.6,40-2.2v-174c-5.9-1.6-27.1-2.2-40-2.2h-1.9v-8.9h107.3v8.9h-1.9
			c-11.9,0-31.6,0.6-37.4,2.2V704c2.3,3.6,5.4,4.6,14,4.6c2.6,0,7.7,0.1,12.6,0.1c4.9,0.1,9.9,0.1,12.5,0.1c14.2,0,29.1-1.4,41.1-18
			c9-12,22.4-40.7,31.8-63.8l0.7-1.7l6.5,2.3l-0.5,1.7c-5.5,20.4-11.8,39.8-17.5,56.9c-4,12.1-7.5,22.6-9.7,30.8l-0.4,1.4H281.9z"/>
		<path d="M387.3,524v2v3.1c0,0-33.6,0-39.3,2.8v172.7c2.8,4.8,6.8,5.9,15.9,5.9c5.1,0,19.9,0.2,25,0.2c15.5,0,30.5-2.1,42.7-18.8
			c9.1-12.1,22.6-41.1,32-64.2l3.1,1.1c-9.3,34.9-21.8,67.9-27.2,87.6h-92.1h-15.6h-48.1v-2v-3.1c0,0,36.2,0,41.9-2.8V531.8
			c-5.7-2.8-41.9-2.8-41.9-2.8v-3.1v-2h42.5h21.2H387.3 M391.1,520.2h-3.8h-39.8h-21.2h-42.5H280v3.8v2v3.1v3.8l3.8,0
			c14.7,0,31.8,0.7,38.1,1.8v171c-6.3,1.2-23.4,1.8-38.1,1.8H280v3.8v3.1v2v3.8h3.8h48.1h15.6h92.1h2.9l0.8-2.8
			c2.2-8.2,5.7-18.6,9.7-30.7c5.7-17.1,12.1-36.5,17.5-57l0.9-3.4l-3.3-1.2l-3.1-1.1l-3.4-1.2l-1.4,3.4c-9.3,23-22.7,51.6-31.5,63.4
			l0,0l0,0c-10.4,14.4-22.9,17.3-39.6,17.3c-2.5,0-7.6-0.1-12.5-0.1c-4.9-0.1-10-0.1-12.6-0.1c-8.2,0-10.5-1-12.1-3.2V534.7
			c6.1-1.1,21.9-1.8,35.5-1.8h3.8V529v-3.1v-2V520.2L391.1,520.2z"/>
	</g>
	<g>
		<path fill="#FFFFFF" d="M118.1,624.8c-0.1-1.8-0.1-3.7-0.1-5.5c0.3-44.2,20.4-89.1,64.6-90c26,0.7,43.6,17.2,48.5,45.3l-45.6,54.1
			v7.7l1.9,0c14.1,0.1,37.3,1.3,42.8,3.9v15c-0.6,10.1-5.7,21.6-13.3,30.1c-3,3.3-7,7-12.2,10c4.7,2.6,9.5,5.1,14.4,7.6
			c5.1-5.6,9.6-12.5,13.6-20.8c8,11.9,12.7,25.1,15,33.5c3,1.2,6.1,2.4,9.2,3.5l-0.2-6.1l-0.2-5.4c-0.5-15.4-0.3-49,0.1-67.5
			c6.1-2.6,26.6-3.7,39.6-3.8l1.9,0v-8.9H197.7l63-48.4l-0.3-1.2c-13-48.7-49.5-58.9-77.7-58.9c-28.7,0-53,10.4-70.1,30.1
			c-9.6,11-16.5,24.6-20.5,39.6C99.5,600.8,108.1,612.9,118.1,624.8z"/>
		<g>
			<path d="M119.9,619.2c0.1-23.2,5.6-44.6,15.5-60.3c5.3-8.5,11.9-15.2,19.4-19.9c8.1-5,17.5-7.7,27.8-7.9
				c24.7,0.7,41.6,16.3,46.5,42.9l-44.5,52.9l-0.9,1.1v1.4v2v3.1v3.8l3.8,0c0.1,0,9.7,0.1,19.8,0.7c13.3,0.8,18.8,2,21.1,2.7v13.6
				c-0.6,9.7-5.5,20.7-12.8,28.9c-3.1,3.4-7.3,7.2-12.7,10.1c1.3,0.7,2.6,1.4,3.9,2.2c16.1-9.8,24.7-27.7,25.4-41.1v-16.1
				c-5.7-4.5-44.7-4.8-44.7-4.8v-3.1v-2l45.7-54.2c-4.7-28.7-22.8-47-50.5-47.8c-46.1,0.8-66.2,47.3-66.5,91.9c0,1.1,0,2.2,0,3.2
				c1.3,1.6,2.6,3.1,4,4.7C120,624.5,119.9,621.9,119.9,619.2z"/>
			<path d="M93.4,590.9c9.7-39.5,40.5-70.1,89.3-70.1c28.9,0,63.4,11,75.9,57.5l-66.4,51h40.6H254h42.5v2v3.1c0,0-34.6,0.3-41.5,4.5
				c-0.5,17.7-0.7,52.8-0.1,68.8l0-0.1l0.4,10.8c1.3,0.5,2.6,0.9,3.9,1.4l-0.3-6.8l-0.2-5.5c-0.5-15-0.3-47.4,0.1-66.1
				c6.6-2.1,25.2-3.1,37.8-3.2l3.8,0v-3.8v-3.1v-2v-3.8h-3.8H254h-21.2h-29.4l57.5-44.2l2-1.5l-0.7-2.5c-5.9-22-17.2-38.3-33.4-48.4
				c-12.7-7.9-28.2-11.9-46.1-11.9c-29.3,0-54,10.6-71.6,30.8c-9.4,10.8-16.3,24-20.4,38.6C91.6,587.9,92.5,589.4,93.4,590.9z"/>
			<path d="M217.5,702c1.2,0.6,2.4,1.2,3.5,1.8c4.4-4.9,8.4-10.9,12-17.8c6.4,10.3,10.3,21.2,12.6,28.8c1.5,0.6,3,1.2,4.5,1.8
				c-2.6-9.4-7.9-24.9-17.6-38.2C228.3,687.7,223.4,695.6,217.5,702z"/>
		</g>
	</g>
	<g>
		<path fill="#FFFFFF" d="M921.1,721.1c-17.5,0-33.7-3.6-49.8-10.9l-0.7-0.3l-0.3-0.8c-0.2-0.5-16.3-47.2-24.4-79.9l-0.4-1.6
			l6.2-2.5l0.7,1.8c12.6,33,25.9,54.2,32.6,63.8c5.7,8.3,21.4,20,38.6,20c17.6,0,43.1-13.1,43.1-36.7c0-16.8-14-24-35.3-35
			c-4.9-2.5-9.9-5.1-15.3-8.1c-39.8-22.2-53.9-39.1-53.9-64.8c0-14,5.5-26,15.9-34.6c9.7-8,23-12.4,37.5-12.4
			c24.4,0,43.4,8.3,59.7,26l0.8,0.9l-25.9,69.5c19.7,11.3,32.6,24,32.6,48.2c0,15.7-5.2,29.8-14.7,39.8
			C957.5,715,941.2,721.1,921.1,721.1z M916.9,529.5c-25.4,0-39.2,16.7-39.2,32.5c0,18.3,15.8,25.6,34.2,34.2c3.2,1.5,6.5,3,9.8,4.7
			c2.3,1.2,4.6,2.3,6.8,3.4c5,2.5,9.8,4.8,14.3,7.2l8-61.2C942.6,536.5,931.2,529.5,916.9,529.5z"/>
		<path d="M915.8,521.1c24.6,0,42.7,8.5,58.3,25.4l-26,69.9c19.7,11.1,33.1,23.4,33.1,47.3c0,28.7-17.8,55.5-60,55.5
			c-15.6,0-31.7-2.8-49-10.7c0,0-16.1-46.8-24.3-79.7l2.8-1.1c11.3,29.6,23.8,51.3,32.8,64.2c5.9,8.7,22.1,20.9,40.2,20.9
			c19.3,0,45-14.1,45-38.6c0-22-22.6-28.7-51.5-44.8c-37.9-21.1-52.9-37.5-52.9-63.1C864.2,538,887.7,521.1,915.8,521.1
			 M944.4,614.4l8.5-64.5c-6.7-11.5-17.7-22.2-36-22.2c-20.1,0-41.1,12.4-41.1,34.4c0,22.8,22.9,29.6,45,40.6
			C929.2,606.7,937.2,610.5,944.4,614.4 M915.8,517.3c-14.9,0-28.7,4.6-38.7,12.8c-10.9,9-16.6,21.5-16.6,36
			c0,13.9,4.2,25.2,13.2,35.7c8.4,9.9,21.3,19.3,41.7,30.7c5.4,3,10.4,5.6,15.3,8.1c22.5,11.7,34.3,18.4,34.3,33.4
			c0,22.4-24.4,34.8-41.2,34.8c-16.6,0-31.6-11.2-37.1-19.2c-6.7-9.6-19.9-30.6-32.4-63.5l-1.4-3.6l-3.6,1.4l-2.8,1.1l-3.1,1.2
			l0.8,3.2c8.2,32.8,24.3,79.6,24.4,80.1l0.5,1.5l1.5,0.7c16.3,7.4,32.8,11.1,50.6,11.1c20.5,0,37.3-6.3,48.6-18.2
			c9.8-10.4,15.2-25,15.2-41.1c0-25.8-15.1-39-32.2-49l24.9-66.9l0.8-2.2l-1.6-1.7C960.2,525.8,940.8,517.3,915.8,517.3L915.8,517.3
			z M941.3,608.5c-3.8-2-7.8-3.9-12-6c-2.2-1.1-4.5-2.2-6.8-3.4c-3.3-1.6-6.6-3.2-9.8-4.7c-18.5-8.6-33.1-15.4-33.1-32.5
			c0-14.8,13.1-30.6,37.3-30.6c13.4,0,24.2,6.5,32,19.3L941.3,608.5L941.3,608.5z"/>
	</g>
</g>
<g>
	<circle fill="#FFFFFF" cx="812.9" cy="220.4" r="110.8"/>
	<path d="M812.9,333.1c-62.1,0-112.7-50.5-112.7-112.7c0-62.1,50.5-112.7,112.7-112.7s112.7,50.5,112.7,112.7
		C925.6,282.5,875,333.1,812.9,333.1z M812.9,111.5c-60,0-108.9,48.8-108.9,108.9s48.8,108.9,108.9,108.9s108.9-48.8,108.9-108.9
		S873,111.5,812.9,111.5z"/>
</g>
<g>
	<path fill="#1B1D1E" d="M363,740.6c-85.4,0-165.6-33.2-226-93.6s-93.6-140.6-93.6-226h3.8c0,84.3,32.8,163.6,92.5,223.3
		c59.6,59.6,138.9,92.5,223.3,92.5V740.6z"/>
</g>
<g>
	<circle fill="#FFFFFF" cx="599.6" cy="607.4" r="110.8"/>
	<path d="M599.6,720.1c-62.1,0-112.7-50.5-112.7-112.7s50.5-112.7,112.7-112.7s112.7,50.5,112.7,112.7S661.7,720.1,599.6,720.1z
		 M599.6,498.6c-60,0-108.9,48.8-108.9,108.9c0,60,48.8,108.9,108.9,108.9s108.9-48.8,108.9-108.9
		C708.4,547.4,659.6,498.6,599.6,498.6z"/>
</g>
<g>
	<circle fill="#FFFFFF" cx="286.6" cy="385.4" r="110.8"/>
	<path d="M286.6,498.1c-62.1,0-112.7-50.5-112.7-112.7s50.5-112.7,112.7-112.7s112.7,50.5,112.7,112.7S348.7,498.1,286.6,498.1z
		 M286.6,276.5c-60,0-108.9,48.8-108.9,108.9s48.8,108.9,108.9,108.9s108.9-48.8,108.9-108.9S346.6,276.5,286.6,276.5z"/>
</g>
<g>
	<defs>
		<circle id="SVGID_1_" cx="287.6" cy="385.4" r="110.8"/>
	</defs>
	<clipPath id="SVGID_2_">
		<use xlink:href="#SVGID_1_"  overflow="visible"/>
	</clipPath>
	<g clip-path="url(#SVGID_2_)">
		<g class="cropped" id="image3">
			<path d="M234.3,209.3c38.6,0,84.9,14.7,101.5,76.9L247,354.5h54.4h28.4h56.8v2.6v4.1
				c0,0-46.4,0.4-55.5,6c-0.6,23.7-0.9,70.6-0.2,92l-0.1-0.1l0.8,20.5h-4.9c-1.9-9-9-36.8-25.6-59.7c-15.4,33.9-37.4,54.4-74,54.4
				c-56.1,0-116.7-35.8-116.7-133.9C110.4,270.7,154.4,209.3,234.3,209.3 M231.9,453.6c43.9,0,67.2-38.6,68.7-64.5v-21.5
				c-7.6-6-59.9-6.4-59.9-6.4v-4.1v-2.6l61.1-72.6c-6.3-38.4-30.6-62.9-67.6-63.9c-61.8,1.1-88.7,63.4-89,122.9
				c-0.4,78.4,44.7,112.4,86,112.8C231.5,453.6,231.7,453.6,231.9,453.6 M234.3,204.1c-39.2,0-72.3,14.3-95.8,41.2
				c-21.4,24.6-33.2,58.4-33.2,95.2c0,24,3.6,45.6,10.7,64.1c6.5,17.1,16,31.6,28.2,43.3c21.3,20.4,50.8,31.6,83,31.6
				c19,0,34.7-5.1,48.2-15.6c10.2-8,19-19,26.6-33.6c13.3,21.6,18.8,45.4,19.9,50.4l0.9,4.1h4.2h4.9h5.4l-0.2-5.4l-0.5-13l-0.2-7.3
				c-0.7-20.1-0.5-63.4,0.1-88.4c3.3-1,10.6-2.4,26.4-3.4c12.4-0.8,23.9-0.9,24-0.9l5.1,0v-5.1v-4.1v-2.6v-5.2h-5.2h-56.8h-28.4h-39.2
				l76.8-59l2.7-2.1l-0.9-3.3c-7.9-29.5-23-51.3-44.8-64.9C279,209.5,258.3,204.1,234.3,204.1L234.3,204.1z M231.9,448.5
				c-0.2,0-0.4,0-0.6,0c-10-0.1-19.7-2.2-28.9-6.3c-9.8-4.4-18.6-10.8-26-19.1c-17.2-19.3-26.2-47.7-26.1-82.2
				c0.2-31,7.6-59.6,20.7-80.7c7.2-11.4,15.9-20.4,26-26.6c10.9-6.7,23.4-10.3,37.2-10.5c16.8,0.5,30.9,6,41.8,16.5
				c10.2,9.8,17.2,23.9,20.3,40.8l-59.6,70.7l-1.2,1.4v1.9v2.6v4.1v5.1l5.1,0c0.1,0,12.9,0.1,26.5,0.9c17.7,1.1,25.1,2.6,28.2,3.6V389
				c-0.8,12.9-7.4,27.7-17.1,38.7C269.9,437.2,254.9,448.5,231.9,448.5L231.9,448.5z"/>
		</g>
	</g>
</g>
<g>
	<defs>
		<circle id="SVGID_3_" cx="812.9" cy="220.4" r="108.8"/>
	</defs>
	<clipPath id="SVGID_4_">
		<use xlink:href="#SVGID_3_"  overflow="visible"/>
	</clipPath>
	<g clip-path="url(#SVGID_4_)">
		<g class="cropped" id="image1" >
			<image overflow="visible" width="2722" height="3211" xlink:href="./assets/flint.jpg"  transform="matrix(0.2228 0 0 0.2228 623.4969 -59.5002)">
				</image>
		</g>
	</g>
</g>
<g>
	<defs>
		<circle id="SVGID_5_" cx="599.6" cy="607.5" r="108.9"/>
	</defs>
	<clipPath id="SVGID_6_">
		<use xlink:href="#SVGID_5_"  overflow="visible"/>
	</clipPath>
	<g clip-path="url(#SVGID_6_)">
		<g class="cropped" id="image2" >
			<image overflow="visible" width="600" height="800" xlink:href="./assets/sabine_marcelis.jpg"  transform="matrix(1.3855 0 0 1.3855 42.0657 -200.4206)">
				</image>
		</g>
	</g>
</g>
<g>
	<polygon fill="#1B1D1E" points="1083.9,136 1080.1,136 1080.1,34.8 865.7,34.8 865.7,31 1083.9,31 	"/>
</g>
<g>
	<path d="M1070.2,161.8v-3l27.3-10.4v2.6l-24.4,9.3l24.4,9.3v2.6L1070.2,161.8z"/>
	<path d="M1085.3,178v12.1h-2.2V178h-10.8v14.9h-2.2v-17.4h27.3v17.4h-2.2V178H1085.3z"/>
	<path d="M1070.2,218.2v-2.6h12.9v-15.1h-12.9V198h27.3v2.6h-12.2v15.1h12.2v2.6H1070.2z"/>
	<path d="M1072.4,229.9v3.7h-2.2v-10h2.2v3.8h23v-3.8h2.2v10h-2.2v-3.7H1072.4z"/>
	<path d="M1080.6,260.4l-0.8,2.7c-5.7-0.3-10-4.5-10-11.3c0-9.2,7.2-13.2,14.1-13.2c3.5,0,14,1.6,14,13.2c0,6.8-4.3,11-10,11.3
		l-0.8-2.7c5.5,0.2,8.7-3.8,8.7-8.6c0-7-5.4-10.4-11.9-10.5c-6.6,0-11.9,3.5-11.9,10.5C1072,256.7,1075.1,260.6,1080.6,260.4z"/>
	<path d="M1070.2,286.6v-17.4h27.3v2.6h-25.2v14.9H1070.2z"/>
	<path d="M1085.3,292.6v12.1h-2.2v-12.1h-10.8v14.9h-2.2V290h27.3v17.4h-2.2v-14.9H1085.3z"/>
	<path d="M1069.8,339.6c0-8.5,7.1-12.8,14-12.8s14.1,4.3,14.1,12.8s-7.2,12.8-14.1,12.8S1069.8,348.1,1069.8,339.6z M1083.8,329.5
		c-6.6,0-11.8,3.8-11.8,10.1s5.3,10.1,11.8,10.1s12-3.8,12-10.1S1090.4,329.5,1083.8,329.5z"/>
	<path d="M1085.3,361.1v12.1h-2.2v-12.1h-12.9v-2.6h27.3V376h-2.2v-14.9H1085.3z"/>
	<path d="M1097.5,406.5c0,5.2-3.2,8.6-8,8.6c-4.9,0-7.8-3.8-7.8-9.2v-8h-11.5v-2.6h27.3V406.5z M1083.9,405.7c0,3.9,2.2,6.7,5.7,6.7
		c3.5,0,5.8-2.5,5.8-6.2v-8.2h-11.5V405.7z"/>
	<path d="M1082.6,432.7l-12.4,6.6v-2.8l12.3-6.4v-7h-12.3v-2.6h27.3v11.5c0,4.8-3.6,7.4-7.6,7.4
		C1086.2,439.3,1083.2,436.9,1082.6,432.7z M1084.7,431.3c0.2,3.3,2.5,5.2,5.3,5.2c2.9,0,5.4-1.8,5.4-5.2V423h-10.7V431.3z"/>
	<path d="M1069.8,456.7c0-8.5,7.1-12.8,14-12.8s14.1,4.3,14.1,12.8s-7.2,12.8-14.1,12.8S1069.8,465.2,1069.8,456.7z M1083.8,446.6
		c-6.6,0-11.8,3.8-11.8,10.1c0,6.2,5.3,10.1,11.8,10.1s12-3.8,12-10.1C1095.8,450.5,1090.4,446.6,1083.8,446.6z"/>
	<path d="M1070.2,499.3v-2.6h4.8c-2.9-1.5-5.2-4.2-5.2-9.2c0-8.9,7.1-12.8,14-12.8s14.1,3.9,14.1,13.2c0,6.8-4.3,11-10,11.3
		l-0.8-2.7c5.5,0.2,8.7-3.8,8.7-8.6c0-7-5.4-10.5-12-10.5s-11.8,3.4-11.8,10.1c0,5,3.1,8.8,8.7,9.2h1.6v2.6H1070.2z"/>
	<path d="M1082.6,517.1l-12.4,6.6v-2.8l12.3-6.4v-7h-12.3v-2.6h27.3v11.5c0,4.8-3.6,7.4-7.6,7.4
		C1086.2,523.8,1083.2,521.3,1082.6,517.1z M1084.7,515.8c0.2,3.3,2.5,5.2,5.3,5.2c2.9,0,5.4-1.8,5.4-5.2v-8.4h-10.7V515.8z"/>
	<path d="M1085.3,531v12.1h-2.2V531h-10.8v14.9h-2.2v-17.4h27.3v17.4h-2.2V531H1085.3z"/>
	<path d="M1084,566.9c-1.2,3.1-3.4,4.8-6.5,4.8c-4.6,0-7.8-3.6-7.8-10c0-5.9,2.9-10.8,8.3-11.1l0.9,2.7h-0.5
		c-4.4,0.2-6.6,4.6-6.6,8.6c0,3.1,1.4,7,5.4,7.1c2.9,0,4-2.1,4.8-4.2l2.8-7.8c1.2-3.2,3.5-4.8,6-4.8c3.8,0,7,3.6,7,9.4
		c0,5.3-2.6,9.3-8,9.6l-0.8-2.7h0.3c4.4-0.2,6.4-3.6,6.4-7c0-3-1.6-6.5-4.6-6.5c-2.7,0-3.8,2.8-4.5,4.6L1084,566.9z"/>
	<path d="M1084,592.7c-1.2,3.1-3.4,4.8-6.5,4.8c-4.6,0-7.8-3.6-7.8-10c0-5.9,2.9-10.8,8.3-11.1l0.9,2.7h-0.5
		c-4.4,0.2-6.6,4.6-6.6,8.6c0,3.1,1.4,7,5.4,7.1c2.9,0,4-2.1,4.8-4.2l2.8-7.8c1.2-3.2,3.5-4.8,6-4.8c3.8,0,7,3.6,7,9.4
		c0,5.3-2.6,9.3-8,9.6l-0.8-2.7h0.3c4.4-0.2,6.4-3.6,6.4-7c0-3-1.6-6.5-4.6-6.5c-2.7,0-3.8,2.8-4.5,4.6L1084,592.7z"/>
</g>
</svg>
